<svg id="Слой_1" data-name="Слой 1" xmlns="http://www.w3.org/2000/svg" viewBox="0 0 1024 1024"><defs><style>.cls-1{fill:#ffd800;}</style></defs><path class="cls-1" d="M196.94,942.68c2.17-19.87,3.52-40,6.71-59.86,6.67-41.51,13.74-83,21.74-124.23,6.11-31.47,13.81-62.63,21.07-93.87.87-3.72.06-5.71-2.67-8-48.72-41.58-95.44-85.25-138.15-133.06C81.2,496.25,57.87,468,39.75,435.87c-16.14-28.59-5-59.66,25.57-71.63,20.08-7.87,41.2-11.83,62.41-14.91q35-5.08,70.29-8.75c18.36-1.94,36.81-3.21,55.25-4.26,28.93-1.66,57.88-3,86.83-4.21,3.86-.17,4.93-2.24,6.06-5.27,17.59-47.2,34.66-94.61,53.11-141.47,15.73-40,33.42-79.14,56.67-115.45a196.89,196.89,0,0,1,21.83-28.48c19.06-20.34,49.06-20.21,68.45-.22,16.54,17,28.18,37.49,39.13,58.29C611.9,150,632.76,202.87,652.61,256.2c8.76,23.52,17,47.24,25.33,70.91,1.13,3.21,2.58,4.84,6.28,5,29.11,1.27,58.25,2.29,87.32,4.25,54,3.64,107.87,7.76,160.75,20a186.38,186.38,0,0,1,28.51,8.87c28.16,11.48,39,42.54,24.31,69.2-13.47,24.47-30.37,46.57-48.28,67.9-46.34,55.15-98.39,104.56-153.08,151.25-5.56,4.75-6.79,8.71-5.2,15.89,11,49.64,22.23,99.24,31.59,149.2,6.42,34.27,10.13,69.06,14.6,103.67,1.22,9.49,1.86,19.31.91,28.79-2.23,22.26-23.14,40.54-45.61,40.4A37.46,37.46,0,0,1,765.13,988c-27.33-12.57-55.15-24.31-81.57-38.61C627.22,918.86,571.62,887,515.77,855.59c-2.64-1.48-4.52-1.76-7.18-.08-68.07,43-139.76,79.39-211.72,115.26-10,5-19.79,10.28-29.76,15.26-28.39,14.2-60.8-.65-68.31-31.32C197.86,950.86,197.57,946.84,196.94,942.68Z"/></svg>