<svg id="Слой_1" data-name="Слой 1" xmlns="http://www.w3.org/2000/svg" viewBox="0 0 1024 1024"><defs><style>.cls-1{fill:#ffd800;}</style></defs><path class="cls-1" d="M512.23,93.83c6.63,9,12.89,20.07,20,33.63,23.84,45.29,42.87,92.59,64.12,149.67,7.06,19,14,38.66,20.67,57.7q2.15,6.1,4.3,12.22c9.35,26.55,32.45,43.8,60.26,45l18.1.76c22.36.94,45.48,1.9,67.8,3.41,54.81,3.7,104,7.65,151.29,18.55,2.48.57,4.88,1.19,7.19,1.84-11.17,17.91-24.34,34.26-35.1,47.07-39.51,47-85.93,92.86-146.1,144.22C722.39,627,713.57,653.48,720,682.39l4.11,18.52c9.38,42.27,19.08,86,27.09,128.77,4.68,25,7.84,50.44,11.19,77.39.59,4.78,1.2,9.67,1.82,14.59-18.3-8.26-35.65-16.2-52-25.08-41.74-22.58-84-46.46-124.86-69.55-13.78-7.78-28-15.83-42.08-23.74A67.09,67.09,0,0,0,512,794.36a66.42,66.42,0,0,0-35.46,10.43c-64.8,41-134.62,76.49-206.43,112.29-3.7,1.84-7.33,3.7-10.87,5.54,1-10.57,2.11-20.65,3.66-30.28,7.67-47.72,14.47-86.59,21.41-122.33,4.54-23.45,10-46.62,15.78-71.15q2.43-10.27,4.83-20.56a66.67,66.67,0,0,0-22.17-67.25c-52.56-44.87-95.86-86.54-132.35-127.4C132,463.09,113.17,440.85,98,416.44c12.36-3.65,25.62-5.88,38.37-7.73,21.68-3.14,44.55-6,68-8.46,18.87-2,37.91-3.2,52.38-4,29.2-1.67,58.49-3,86-4.17a65.6,65.6,0,0,0,44.53-19.72,69.78,69.78,0,0,0,15.17-24.54c4.85-13,9.74-26.27,14.46-39.06,12.34-33.42,25.1-68,38.25-101.39,17.55-44.59,33.4-77,51.37-105.06q2.86-4.47,5.76-8.45m-.31-67.63a46.61,46.61,0,0,0-34.15,15.24,196.89,196.89,0,0,0-21.83,28.48c-23.25,36.31-40.94,75.49-56.67,115.45-18.45,46.86-35.52,94.27-53.11,141.47-1.13,3-2.2,5.1-6.06,5.27-29,1.25-57.9,2.55-86.83,4.21-18.44,1.05-36.89,2.32-55.25,4.26q-35.22,3.72-70.29,8.75c-21.21,3.08-42.33,7-62.41,14.91-30.55,12-41.71,43-25.57,71.63,18.12,32.1,41.45,60.38,65.89,87.75,42.71,47.81,89.43,91.48,138.15,133.06,2.73,2.33,3.54,4.32,2.67,8-7.26,31.24-15,62.4-21.07,93.87-8,41.26-15.07,82.72-21.74,124.23-3.19,19.85-4.54,40-6.71,59.86.63,4.16.92,8.18,1.86,12,5.56,22.71,24.76,36.74,45.88,36.74A50,50,0,0,0,267.11,986c10-5,19.79-10.28,29.76-15.26,72-35.87,143.65-72.24,211.72-115.26a6.3,6.3,0,0,1,3.4-1.15,7.83,7.83,0,0,1,3.78,1.23c55.85,31.41,111.45,63.27,167.79,93.76,26.42,14.3,54.24,26,81.57,38.61A37.46,37.46,0,0,0,780,991.49h.25c22.38,0,43.14-18.22,45.36-40.4,1-9.48.31-19.3-.91-28.79-4.47-34.61-8.18-69.4-14.6-103.67-9.36-50-20.61-99.56-31.59-149.2-1.59-7.18-.36-11.14,5.2-15.89,54.69-46.69,106.74-96.1,153.08-151.25,17.91-21.33,34.81-43.43,48.28-67.9,14.67-26.66,3.85-57.72-24.31-69.2a186.38,186.38,0,0,0-28.51-8.87c-52.88-12.21-106.8-16.32-160.75-20-29.07-2-58.21-3-87.32-4.25-3.7-.16-5.15-1.79-6.28-5-8.34-23.67-16.57-47.39-25.33-70.91C632.76,202.87,611.9,150,585.35,99.51c-11-20.8-22.59-41.25-39.13-58.29-9.68-10-22-15-34.3-15Z"/></svg>